<svg xmlns="http://www.w3.org/2000/svg" viewBox="0 0 16000 3010" height="301" width="1600" version="1.0"><path d="M14625 2996c-130-49-215-171-215-309 0-100 35-173 115-245l45-40v-886c0-568-3-886-10-886-19 0-100-91-122-138-27-59-36-168-17-226 28-88 96-167 178-208 39-19 62-23 152-23 92 0 111 3 152 24 82 42 148 114 174 191 17 48 16 180-1 221-22 53-70 114-115 145l-41 29v503c0 475 1 503 18 498 9-2 44-10 77-16 172-32 241-58 307-118 84-76 158-221 158-310 0-29-9-43-53-86-99-95-130-213-89-338 22-66 69-128 126-166 69-47 104-57 201-57 81 1 96 4 158 34 70 35 122 85 154 150 22 45 30 186 13 245-16 58-77 136-127 164-40 22-41 23-47 91-12 118-70 277-140 381-114 170-268 264-496 300-93 15-151 34-212 67l-48 26v199c0 164 2 198 14 198 25 0 108 93 133 148 34 78 33 193-4 268-32 66-95 127-166 160-44 20-66 24-147 23-52-1-109-6-125-13zm176-153c19-4 50-24 76-49 40-41 43-47 43-99 0-60-10-86-44-119-38-36-64-46-122-46-77 0-134 33-163 95-26 55-26 68-2 121 36 80 116 116 212 97zm936-1815c15-7 42-27 59-45 107-112-2-281-165-259-160 22-192 236-46 301 38 17 116 19 152 3zm-911-527c62-28 94-76 94-140 0-86-38-135-127-161-83-25-180 28-212 115-11 32-11 45 0 79 33 103 146 152 245 107z" fill="#ebebeb" fill-opacity=".922"/><path d="M3295 2457c-97-33-136-67-156-134-20-68 12-143 77-181 13-8 15-14 8-19-24-17-54-80-54-115 0-46 17-85 50-118l25-26-36-48c-49-65-66-136-49-207 14-56 44-112 76-140 60-53 170-85 254-75 30 4 124 9 208 12l152 5v169h-95v92c0 95-9 125-52 174-44 51-164 89-256 82-75-7-87-3-87 28 0 42 42 54 189 54 156 0 208 12 260 60 63 58 75 121 41 214-32 84-112 144-230 172-65 16-282 17-325 1zm260-144c79-26 115-74 79-103-21-18-264-31-280-16-43 43-18 98 54 120 62 19 89 19 147-1zm-32-559c45-45 48-115 6-167-16-22-29-27-63-27-60 0-87 33-87 105 0 57 13 88 46 104 36 17 71 12 98-15zm9639 700c-109-34-147-79-147-176 0-65 1-67 43-108 42-42 43-43 25-64-11-11-25-38-32-60-17-50 0-113 41-157 29-30 29-31 10-47-47-41-66-93-66-182 0-60 5-94 16-116 55-102 179-162 309-150 35 4 133 9 217 12l152 5v169h-56c-49 0-55 2-49 18 15 37 17 93 5 143-14 59-71 130-124 154-75 34-178 45-230 25-21-8-27-6-36 11-15 27-5 54 26 67 15 7 79 12 157 12 187 0 258 27 303 112 34 65 6 184-56 245-38 37-105 70-186 92-57 15-269 12-322-5zm297-153c48-25 66-53 51-80-12-24-39-29-173-33l-108-3-17 28c-25 40-2 75 63 99 60 22 126 18 184-11zm-58-552c23-25 29-40 29-76 0-74-30-112-90-113-47 0-74 20-89 68-36 109 77 200 150 121zM289 2167c-78-26-125-80-147-169-7-27-12-122-12-222v-176H30v-179l33-5c17-3 43-7 57-8 22-3 25-9 27-43 2-22 8-66 14-97l12-58h187v200h180v190H360v155c0 217 15 246 121 232 45-6 46-5 59 60 25 120 27 110-16 117-76 13-199 15-235 3zm1445-2c-68-21-107-45-154-94-74-77-110-170-110-286s36-209 110-286c97-101 231-132 373-87 155 49 247 187 247 373 0 194-93 327-269 384-44 14-145 12-197-4zm149-187c68-39 100-147 77-259-14-67-57-123-102-134-37-9-98 23-122 65-28 49-30 207-3 263 31 64 99 93 150 65zm592 186c-51-19-88-55-117-113-21-44-23-59-26-343l-4-298h230l4 253c3 218 5 256 20 279 32 49 104 45 161-10l27-26v-497l118 3 117 3v740l-96 3c-93 3-97 2-103-20-3-13-6-34-6-47v-25l-32 31c-81 76-196 103-293 67zm2522-3c-58-24-73-35-102-81-36-58-45-118-45-304v-176h-100v-179l33-5c17-3 43-7 57-8 20-2 25-9 27-33 2-16 8-60 14-97l11-68h188v200h180v190h-180v155c0 209 14 238 108 232 29-2 55 0 58 4 4 7 15 55 30 135 6 30 5 32-32 38-101 18-198 16-247-3zm482-4c-68-23-149-70-149-87 0-6 19-39 43-75 40-62 61-76 83-56 26 26 94 53 141 58 66 7 106-14 101-54-3-28-40-50-148-92-75-30-128-68-158-116-21-32-26-53-26-106 0-120 53-185 182-225 110-33 265-1 354 74 16 13 15 17-12 56-16 22-39 54-53 70l-23 29-48-27c-64-36-127-44-161-22-41 27-30 56 35 88 30 14 72 32 95 39 54 17 119 62 152 105 32 42 42 124 24 192-38 140-244 211-432 149zm2080 9c-111-35-177-123-206-271-16-88-16-144 2-219 42-176 161-286 309-286 40 0 146 37 146 51 0 5 3 9 8 9 4 0 5-79 4-175l-4-175h232v1060h-95c-84 0-95-2-95-17 0-10-4-24-9-32-8-12-12-12-26 2-9 10-41 28-71 42-60 27-132 32-195 11zm188-188c15-6 38-21 51-32 21-19 22-27 22-166 0-165-1-167-77-189-33-9-48-9-65 0-69 36-91 84-91 198 1 105 24 163 76 185 41 18 50 19 84 4zm713 188c-173-48-270-183-270-380 0-123 36-212 120-297 88-89 212-119 336-83 76 22 131 67 172 143 35 63 36 67 36 180l1 116-223 3-222 2 19 38c41 80 84 106 174 105 42 0 77-7 107-22 24-11 47-21 50-21 14 0 72 129 66 145-3 9-26 25-51 36-108 48-222 60-315 35zm200-486c0-29-27-78-49-90-25-13-94-13-123 1-21 9-78 85-78 103 0 3 56 6 125 6 119 0 125-1 125-20zm425 480c-81-40-125-114-125-210 0-73 17-114 64-158 60-56 77-63 222-101 23-6 60-11 83-11 32 0 41-4 41-17-1-41-57-83-109-83-33 0-132 34-169 58-12 8-25 13-27 10-15-15-84-152-80-159 5-8 90-50 130-64 123-44 254-45 345-2 37 17 86 72 112 125 22 45 23 58 26 330l3 282h-96c-84 0-95-2-95-17-1-41-16-46-56-19-88 58-195 72-269 36zm252-196c31-23 33-29 33-84v-59l-37 6c-84 13-153 61-153 107 0 59 95 77 157 30zm551 201c-58-16-153-62-169-81-11-14 9-51 75-136 13-18 42-24 48-10 8 17 97 54 145 59 39 4 59 1 78-11 54-35 22-76-95-123-150-60-207-114-217-205-16-156 100-268 279-268 43 0 123 17 173 36 33 12 95 56 95 66 0 11-55 94-81 121-17 18-19 18-64-7-63-36-126-44-160-22-58 38-24 68 157 141 116 46 167 128 154 243-7 60-41 120-86 152-75 53-226 74-332 45zm1772-6c-25-11-56-31-71-45l-25-24-13 35-12 35h-179V1100h230v176c0 97 3 174 8 172 4-2 30-14 57-27 114-55 243-31 323 59 98 110 119 353 44 514-71 152-229 224-362 165zm77-181c15-7 34-19 42-26 26-25 51-111 51-176 0-100-24-152-84-183-25-13-33-13-71 1-81 32-86 43-83 207l3 144 45 23c51 26 59 26 97 10zm599 182c-59-29-83-57-106-117-18-49-20-78-20-344v-290l113 3 112 3 3 255c2 233 4 257 22 280 16 21 27 25 65 24s52-7 80-34l35-34v-496h230v750h-190l-1-27c-1-61-11-66-52-27-75 71-208 95-291 54zm1629 5c-52-15-71-22-123-48-68-33-70-40-28-100 72-104 64-100 134-56 87 54 212 48 212-10 0-28-27-47-136-94-102-44-165-90-190-139-21-41-18-141 6-188 36-70 80-102 176-129 72-19 168-10 259 25 33 13 95 56 95 66 0 12-91 138-99 138-3 0-24-11-47-24-81-46-169-45-181 2-5 20 0 30 23 49 16 12 34 23 39 23 25 0 165 64 197 90 96 79 103 230 16 320-76 79-231 112-353 75zM662 1633l3-528 119-3 119-3-5 186c-3 102-4 185-1 185 2 0 21-12 42-26 83-54 177-67 262-35 125 48 148 126 149 499v252h-239l-3-263c-3-240-5-265-21-282-37-36-143-13-179 40-4 5-8 121-8 258v247H660l2-527zm3318-3v-530h232l-4 185c-2 102-1 185 2 185 4 0 15-8 26-17 10-10 30-23 44-30 115-53 222-42 295 32 63 64 67 84 72 413l5 292h-232l-1-217c0-234-7-305-32-330-24-24-89-18-136 13l-41 27v507h-230v-530zm2990 155v-375h230v750h-230v-375zm23-501c-30-23-33-30-33-80 0-66 11-89 50-109 34-18 119-20 154-4 36 17 59 72 52 123-12 73-44 96-133 96-47 0-64-5-90-26z"/><path d="M14630.629 2997.507c-47.21-13.682-116.276-65.37-153.82-115.116-49.914-66.139-65.455-119.676-61.412-211.567 4.238-96.324 28.223-147.723 102.946-220.613l55.01-53.66-3.198-876.6-3.2-876.597-40.456-39.902c-88.064-86.854-112.45-142.914-112.534-258.71 0-59.822 4.155-78.821 27.942-126.424 32.96-65.96 103.114-135.115 164.7-162.358 35.699-15.791 62.474-19.321 146.547-19.321 123.176 0 165.258 16.113 243.243 93.139 72.048 71.161 89.577 116.003 89.799 229.715.17 85.7-1.916 96.54-27.397 142.544-15.167 27.385-51.69 71.611-81.16 98.28l-53.581 48.489v493.316c0 409.463 2.163 494.145 12.724 498.198 6.999 2.686 62.303-5.98 122.899-19.255 146.41-32.077 228.815-72.21 291.202-141.823 83.518-93.19 147.936-256.744 120.969-307.132-5.784-10.807-33.14-45.004-60.79-75.993-68.086-76.305-91.287-138.65-86.006-231.117 2.45-42.919 11.429-86.325 23.44-113.32 28.336-63.686 99.046-135.145 164.547-166.29 49.686-23.625 65.597-26.462 148.406-26.462 83.34 0 98.592 2.762 150.273 27.21 71.858 33.995 134.593 91.056 162.107 147.444 18.029 36.95 21.158 58.268 21.33 145.331.19 95.668-1.491 105.087-26.972 151.08-25.533 46.088-76.212 100.193-123.471 131.819-16.558 11.08-22.754 28.072-30.438 83.462-26.711 192.564-117.427 379.94-238.918 493.49-101.457 94.824-206.143 143.304-389.3 180.284-74.048 14.95-145.098 36.117-190.118 56.637l-71.884 32.766v394.746l30.145 18.676c31.79 19.696 85.833 86.014 114.508 140.518 26.673 50.7 24.638 193.517-3.636 255.073-29.092 63.336-97.318 131.218-164.205 163.374-50.47 24.265-64.29 26.679-148.406 25.927-51.015-.456-105.84-4.622-121.835-9.258zm163.199-153.534c16.679-3.335 50.484-25 76.875-49.266 46.827-43.058 47.1-43.643 46.577-99.268-.99-105.484-55.391-160.874-157.992-160.874-70.333 0-110.622 15.354-143.822 54.81-39.495 46.937-49.776 94.011-31.171 142.728 32.622 85.418 116.876 130.402 209.533 111.87zm973.684-1838.273c71.907-58.114 89.05-136.712 44.5-204.03-65.038-98.282-235.487-101.446-294.802-5.474-55.813 90.308-7.82 210.465 94.364 236.25 54.997 13.878 119.323 2.845 155.938-26.746zm-942.866-505.934c70.785-30.287 103.356-97.368 88.167-181.58-19.667-109.039-174.441-159.649-265.062-86.674-47.655 38.375-77.892 92.524-72.495 129.826 12.95 89.502 82.337 151.198 170.046 151.198 27.223 0 62.928-5.747 79.344-12.77z" fill="#4285f4" fill-opacity=".004"/><path d="M14639.6 2998.71c-75.706-18.031-157.25-89.717-199.456-175.346-17.74-35.988-21.23-58.13-21.395-135.755-.24-114.083 16.71-154.569 98.777-235.875l55.637-55.122-3.103-876.163-3.104-876.163-52.172-54.694c-74.907-78.527-94.093-120.515-98.784-216.186-3.174-64.72-.27-88.388 16.229-132.143 25.373-67.302 96.297-146.139 160.054-177.91 43.377-21.616 58.277-23.86 158.385-23.86 106.365 0 112.574 1.103 165.793 29.469 62.205 33.155 117.073 90.293 148.393 154.532 17.574 36.046 21.12 58.686 21.303 135.999.2 85.737-1.866 96.52-27.358 142.544-15.167 27.385-51.69 71.611-81.16 98.28l-53.581 48.489v493.316c0 409.463 2.163 494.145 12.724 498.198 6.999 2.686 62.303-5.98 122.899-19.255 146.41-32.077 228.815-72.21 291.202-141.823 83.518-93.19 147.936-256.744 120.969-307.132-5.784-10.807-33.14-45.004-60.79-75.993-68.086-76.305-91.287-138.649-86.006-231.117 2.45-42.919 11.429-86.325 23.44-113.32 27.475-61.751 96.598-131.84 162.503-164.772 51.218-25.594 64.048-27.994 149.613-27.988 84.063.007 99.393 2.753 150.59 26.973 72.94 34.507 128.207 84.653 158.735 144.026 21.54 41.895 24.214 57.978 24.763 148.994.54 89.278-2.04 107.008-20.632 141.867-26.636 49.94-77.7 106.95-118.231 132-26.11 16.136-31.957 26.16-36.646 62.811-26.957 210.695-121.97 410.747-251.414 529.36-101.901 93.373-213.277 141.638-421.11 182.488-43.363 8.523-111.19 30.237-150.725 48.254l-71.884 32.758v387.963l53.777 49.788c29.577 27.383 66.049 72.032 81.048 99.22 24.77 44.902 27.278 57.51 27.348 137.549.1 110.794-21.11 163.444-93.354 231.77-76.817 72.65-128.736 92.87-235.776 91.828-48.463-.472-101.34-4.009-117.5-7.858zm154.228-154.737c16.679-3.335 50.484-25 76.875-49.266 46.827-43.058 47.1-43.643 46.577-99.268-.99-105.484-55.391-160.874-157.992-160.874-70.333 0-110.622 15.354-143.822 54.81-39.495 46.937-49.776 94.011-31.171 142.728 32.622 85.418 116.876 130.402 209.533 111.87zm973.684-1838.273c71.907-58.114 89.05-136.712 44.5-204.03-65.038-98.282-235.487-101.446-294.802-5.474-55.813 90.308-7.82 210.465 94.364 236.25 54.997 13.878 119.323 2.845 155.938-26.746zm-942.866-505.934c70.785-30.287 103.356-97.368 88.167-181.58-19.667-109.039-174.441-159.649-265.062-86.674-47.655 38.375-77.892 92.524-72.495 129.826 12.95 89.502 82.337 151.198 170.046 151.198 27.223 0 62.928-5.747 79.344-12.77z" fill="#4285f4" fill-opacity=".004"/><path d="M14639.6 2999.193c-44.141-11.238-108.22-51.682-140.954-88.964-53.588-61.033-78.193-122.053-82.785-205.302-6.044-109.595 11.5-155.17 92.606-240.553l64.463-67.863-2.987-876.114-2.987-876.113-53.737-56.334c-76.841-80.553-94.45-123.955-94.571-233.095-.1-73.662 3.448-95.314 21.513-131.994 31.11-63.17 96.555-131.818 152.01-159.453 43.454-21.654 58.376-23.915 157.785-23.915 99.666 0 114.15 2.21 157.072 23.959 60.687 30.752 127.59 97.878 156.392 156.91 19.398 39.76 22.62 59.612 22.584 139.13 0 85.386-2.233 96.738-27.603 142.896-15.687 28.538-52.957 72.496-86.507 102.029l-58.946 51.887 5.845 486.783c3.214 267.73 9.442 490.38 13.838 494.776 18.009 18.01 269.799-47.486 333.689-86.798 89.46-55.045 182.868-189.334 205.679-295.698 13.946-65.028 8.227-81.216-52.888-149.71-75.318-84.41-91.481-124.472-91.481-226.744 0-66.108 4.196-92.582 20.167-127.232 28.748-62.374 97.803-132.093 163.202-164.773 51.339-25.655 63.935-27.995 150.686-27.995 89.745 0 98.054 1.696 159.925 32.65 73.126 36.583 124.534 87.464 153.29 151.722 15.27 34.117 19.319 62.767 19.826 140.266.59 90.953-1.16 100.634-26.54 146.443-25.298 45.664-75.12 99.051-123.016 131.818-16.18 11.069-23.311 31.572-34.885 100.305-40.588 241.042-161.737 444.441-327.23 549.393-71.143 45.118-168.457 80.232-294.65 106.317-81.055 16.756-146.121 36.808-198.502 61.177l-77.923 36.25 6.246 190.772 6.246 190.771 53.57 49.596c29.463 27.278 65.749 71.841 80.635 99.03 24.437 44.63 27.096 57.99 27.383 137.548.28 77.813-2.68 94.216-25.303 140.286-28.815 58.675-95.291 125.694-156.251 157.527-33.72 17.608-57.516 21.67-138.13 23.581-53.564 1.27-110.614-1.057-126.775-5.172zm154.228-155.22c16.792-3.358 50.657-25.162 77.68-50.015l47.912-44.06-1.557-55.64c-2.92-104.291-59.048-161.413-158.137-160.94-90.028.432-138.105 28.228-170.601 98.638-21.834 47.308-21.81 71.237.12 113.993 40.36 78.7 117.177 115.506 204.586 98.024zm973.684-1838.273c99.749-80.615 88.866-207.328-22.435-261.207-57.001-27.594-145.774-23.827-186.105 7.898-77.28 60.788-89.688 162.76-28.196 231.722 56.126 62.943 172.44 73.55 236.736 21.587zm-942.721-505.695c35.704-14.918 89.518-73.423 91.15-99.096.64-10.025 1.834-23.445 2.658-29.822 3.913-30.295-15.344-96.324-34.013-116.623-47.822-51.999-144.33-72.175-205.77-43.019-38.25 18.151-82.317 65.127-97.658 104.105-23.113 58.725 28.948 160.824 95.749 187.779 30.869 12.456 114.623 10.573 147.884-3.324z" fill="#4285f4" fill-opacity=".004"/><path d="M14639.308 2999.133c-39.665-10.079-117.662-60.909-147.044-95.827-13.05-15.508-34.97-49.515-48.713-75.57-22.305-42.29-24.987-57.326-24.993-140.127-.01-112.363 14.817-147.323 98.685-232.698l55.469-56.465-2.878-877.082-2.878-877.08-53.737-56.334c-76.841-80.553-94.45-123.955-94.571-233.095-.12-106.497 19.607-155.186 92.197-227.576 71.346-71.15 101.763-82.56 229.823-86.221 100.376-2.87 112.757-1.29 160.185 20.422 61.28 28.056 133.358 99.023 163.218 160.705 18.14 37.472 21.527 59.103 21.493 137.271 0 85.134-2.292 96.92-27.332 142.84-15.86 29.084-52.145 71.825-86.62 102.03l-59.327 51.978 5.419 486.026c3.152 282.66 9.064 489.67 14.129 494.734 19.848 19.85 266.177-43.967 336.33-87.133 95.813-58.954 197.104-215.96 208.505-323.192l5.424-51.014-57.84-64.664c-81.066-90.633-96.801-128.54-96.361-232.148.31-73.068 3.695-90.161 27.137-137.067 30.1-60.228 93.459-124.296 154.379-156.108 33.086-17.277 59.409-21.985 140.146-25.065 94.946-3.621 102.074-2.544 158.825 24.013 77.52 36.276 129.39 84.149 160.852 148.454 22.835 46.673 25.437 61.996 25.453 149.895 0 83.227-3.071 103.779-20.578 137.07-27.085 51.5-71.713 101.582-114.71 128.724-27.346 17.263-35.847 29.345-40.012 56.872-38.711 255.795-127.745 436.659-275.476 559.602-95.342 79.345-178.905 114.617-363.558 153.458-72.693 15.291-140.13 36.57-190.515 60.114l-77.992 36.444 5.923 190.376 5.922 190.375 53.962 49.96c29.68 27.478 66.142 72.204 81.028 99.392 24.437 44.632 27.096 57.992 27.383 137.549.28 77.813-2.68 94.216-25.303 140.286-28.815 58.675-95.291 125.694-156.251 157.527-33.72 17.608-57.516 21.67-138.13 23.581-53.564 1.27-110.745-1.084-127.068-5.232zm177.416-163.423c16.479-7.82 46.327-30.981 66.329-51.469 34.8-35.646 36.334-39.774 35.59-95.808-.89-66.938-20.097-102.358-73.362-135.278-60.636-37.475-172.643-24.438-220.65 25.683-26.927 28.111-53.037 83.979-53.037 113.48 0 26.408 30.47 83.541 58.508 109.704 47.413 44.245 132.143 59.54 186.622 33.688zm939.952-1819.29c13.353-9.97 36.477-33.198 51.385-51.617 57.7-71.292 25.195-182.266-65.085-222.202-58-25.655-143.302-20.679-185.901 10.845-35.194 26.045-67.22 86.677-67.22 127.263 0 63.495 53.22 135.016 109.7 147.424 13.636 2.995 28.967 7.063 34.068 9.038 23.12 8.954 100.815-4.148 123.053-20.751zm-908.796-527.381c76.454-45.162 95.392-169.3 35.869-235.118-42.787-47.31-136.286-70.256-195.124-47.886-39.723 15.103-94.608 71.881-107.632 111.345-10.404 31.524-10.308 43.718.61 76.792 16.929 51.296 70.4 104.295 116.323 115.298 43.254 10.363 114.187.698 149.956-20.431z" fill="#4285f4" fill-opacity=".004"/><path d="M14636.479 2995.579c-81.504-22.965-147.708-81.562-196-173.478-18.81-35.803-21.928-54.929-21.928-134.492 0-112.056 14.722-146.724 98.767-232.579l55.158-56.346-2.76-877.2-2.76-877.2-53.737-56.334c-76.841-80.553-94.45-123.955-94.571-233.095-.12-106.497 19.607-155.186 92.197-227.576 71.346-71.15 101.763-82.56 229.823-86.221 100.025-2.86 112.868-1.24 159.504 20.11 62.539 28.632 125.85 90.586 159.486 156.064 22.793 44.372 25.408 59.128 25.215 142.26-.27 115.912-15.81 150.332-107.87 238.918l-65.143 62.686 5.444 483.442c3.248 288.43 9.032 487.03 14.34 492.338 15.29 15.291 223.975-31.706 307.776-69.313 101.164-45.398 224.957-223.35 237.095-340.824l5.272-51.014-56.192-64.186c-69.95-79.902-94.35-129.459-100.312-203.747-10.623-132.333 60.5-256.482 185.024-322.97 35.178-18.783 52.857-21.271 151.142-21.271 102.72 0 114.88 1.903 157.68 24.683 70.734 37.646 121.455 86.355 149.4 143.472 22.548 46.086 25.384 62.52 25.968 150.486.61 92.346-1.1 101.931-26.414 147.802-24.596 44.566-72.78 95.237-125.348 131.818-15.525 10.803-22.117 29.358-29.497 83.026-26.551 193.097-130.77 400.954-254.676 507.94-100.77 87.006-197.396 128.055-409.01 173.755-62.833 13.57-128.71 34.937-166.957 54.155l-63.175 31.743 1.84 190.164 1.84 190.165 59.49 59.489c86.602 86.602 102.612 122.375 103.26 230.722.47 78.053-2.4 94.074-25.093 140.286-28.832 58.708-95.342 125.742-156.251 157.482-32.99 17.19-58.378 21.74-133.492 23.92-55.282 1.605-109.632-2.064-134.535-9.08zm178.89-158.485c16.417-7.058 46.544-30.22 66.95-51.469 35.56-37.031 37.069-41.065 36.324-97.192-1.33-100.13-60.567-156.187-165.05-156.187-85.202 0-136.857 32.814-167.643 106.496-18.74 44.85-18.106 65.48 3.292 107.207 43.736 85.283 144.915 126.065 226.128 91.145zm941-1820.446c13.523-10.095 37.109-33.828 52.414-52.738 57.446-70.977 24.642-181.299-65.807-221.309-58-25.655-143.302-20.679-185.901 10.845-103.233 76.396-80.404 229.806 40.886 274.758 47.768 17.704 126.956 11.927 158.408-11.556zm-921.67-522.218c65.238-31.85 86.902-79.27 81.449-178.284-3.115-56.557-89.194-118.368-165.4-118.768-51.172-.269-77.957 10.767-121.41 50.023-48.89 44.17-65.125 94.086-47.737 146.771 34.756 105.314 149.577 150.797 253.098 100.258z" fill="#4285f4" fill-opacity=".004"/><path d="M14636.479 2995.082c-80.901-21.832-148.147-81.265-195.721-172.98-18.38-35.432-21.693-55.757-21.93-134.493-.34-112.02 14.277-146.551 98.365-232.453l55.034-56.221-2.635-876.85-2.636-876.85-54.78-59.166c-77.81-84.038-93.407-122.598-93.528-231.214-.12-106.24 18.283-151.683 91.58-226.174 71.35-72.512 101.5-83.939 231.25-87.642 103.993-2.968 112.263-1.822 161.814 22.421 64.968 31.786 123.316 89.228 155.85 153.433 22.138 43.687 24.916 59.592 24.916 142.676 0 116.76-15.022 150.28-107.017 238.805l-65.106 62.65 5.17 487.571c2.845 268.164 7.556 489.955 10.469 492.868 12.679 12.678 239.78-40.986 311.846-73.69 101.483-46.052 224.969-223.672 237.095-341.034l5.272-51.014-56.192-64.186c-69.95-79.902-94.35-129.459-100.312-203.747-10.561-131.565 61.434-256.913 185.699-323.315 34.398-18.38 52.706-20.926 150.467-20.926 105.627 0 113.796 1.38 160.145 27.06 74.199 41.11 119.032 84.063 146.64 140.493 22.292 45.562 25.07 61.958 25.506 150.485.42 85.354-2.433 104.975-20.248 139.254-20.363 39.183-88.916 113.56-129.931 140.969-16.592 11.087-22.75 27.947-30.323 83.026-26.575 193.272-138.051 413.269-260.08 513.261-102.83 84.261-198.263 124.088-403.606 168.434-62.81 13.565-128.722 34.942-166.957 54.15l-63.175 31.736 1.604 189.934 1.603 189.933 61.259 61.26c82.192 82.191 101.393 126.396 101.774 234.298.26 73.008-2.992 90.432-25.412 136.255-33.115 67.685-110.393 138.894-178.308 164.304-59.117 22.119-176.42 25.31-245.461 6.679zm178.89-157.988c16.417-7.058 46.544-30.22 66.95-51.469 35.658-37.131 37.07-40.94 36.312-97.908-.66-49.486-4.95-64.73-25.987-92.31-35.238-46.2-72.882-63.16-140.18-63.16-83.997 0-135.883 33.183-166.514 106.495-18.74 44.85-18.106 65.48 3.292 107.207 43.736 85.283 144.915 126.065 226.128 91.145zm941-1820.446c13.523-10.095 37.109-33.828 52.414-52.738 57.446-70.977 24.642-181.299-65.807-221.309-58-25.655-143.302-20.679-185.901 10.845-35.656 26.387-67.22 86.816-67.22 128.693 0 64.559 42.265 121.663 108.106 146.065 47.768 17.704 126.956 11.927 158.408-11.556zm-921.67-522.218c65.238-31.85 86.902-79.27 81.449-178.284-3.115-56.557-89.194-118.368-165.4-118.768-51.172-.269-77.957 10.767-121.41 50.023-48.89 44.17-65.125 94.086-47.737 146.771 34.756 105.314 149.577 150.797 253.098 100.258z" fill="#e5e5e5" fill-opacity=".922"/><path d="M14627.246 2993.234c-86.96-27.255-178.402-124.612-204.175-217.382-13.498-48.587-11.046-138.808 5.266-193.736 11.169-37.61 29.15-64.073 79.684-117.272l65.26-68.702-3.162-875.453-3.163-875.453-54.78-59.166c-78.073-84.324-93.611-122.703-93.611-231.215 0-110.445 18.836-155.766 96.206-231.472 71.232-69.7 112.237-83.92 241.664-83.8 84.229.078 104.877 3.266 146.413 22.604 60.738 28.279 123.887 90.812 156.57 155.045 22.564 44.344 25.165 59.308 24.938 143.471-.23 85.669-2.604 98.284-26.884 142.895-15.064 27.678-52.224 71.468-85.552 100.819l-58.921 51.887 6.264 486.957c3.446 267.826 9.333 490.146 13.083 494.045 8.97 9.329 143.424-16.489 232.629-44.668 38.882-12.283 90.266-35.296 114.187-51.14 84.127-55.724 174.237-197.374 194.346-305.505l10.154-54.597-36.324-42.775c-73.703-86.793-96.847-121.634-110.482-166.319-45.118-147.86 27.427-309.435 174.126-387.825 34.398-18.38 52.706-20.926 150.467-20.926 102.72 0 114.88 1.903 157.68 24.683 70.734 37.646 121.455 86.355 149.4 143.472 22.61 46.215 25.359 62.274 25.756 150.486.55 121.468-13.525 153.715-105.848 242.566l-62.695 60.337-14.888 79.452c-38.03 202.945-134.89 388.643-256.916 492.555-95.83 81.602-186.278 120.254-397.362 169.805-58.318 13.69-134.492 37.615-169.275 53.168l-63.243 28.278v380.959l58.92 61.032c85.935 89.017 101.662 124.669 102.618 232.627.7 78.577-2.025 93.83-25.137 140.894-33.366 67.944-110.593 139.124-178.52 164.538-61.332 22.948-189.156 25.372-254.693 4.831zm190.225-160.605c20.449-9.29 50.71-32.3 67.246-51.133 27.117-30.885 30.066-39.989 30.066-92.838 0-99.341-56.254-154.292-157.537-153.89-89.173.356-143.528 36.947-176.081 118.538-16.893 42.34-.1 94.803 44.732 139.62 55.412 55.412 125.17 69.87 191.574 39.703zm934.474-1815.816c14.196-7.341 38.628-30.938 54.293-52.436 25.32-34.75 28.08-44.793 24.87-90.523-4.545-64.733-25.395-94.361-88.604-125.908-108.38-54.091-227.62.453-248.893 113.853-12.964 69.105 45.145 152.296 119.269 170.75 37.712 9.39 105.258 1.746 139.065-15.736zm-920.362-525.146c58.14-29.373 83.2-70.578 83.2-136.812 0-94.566-64.375-153.043-168.477-153.043-43.342 0-59.572 4.89-92.753 27.95-49.552 34.435-84.952 98.663-76.615 139.006 24.516 118.636 146.523 177.52 254.645 122.899z" fill="#ebebeb"/><ellipse ry="174.335" rx="177.076" cy="2697.242" cx="14749.699" fill="#fff"/><ellipse ry="174.335" rx="177.076" cy="889.909" cx="15662.107" fill="#fff"/><ellipse ry="174.335" rx="177.076" cy="354.062" cx="14757.335" fill="#fff"/><ellipse ry="281.99" rx="295.952" cy="2068.484" cx="10816.069" fill="#4285f4"/><ellipse ry="281.99" rx="295.952" cy="2064.493" cx="6463.768" fill="#4285f4"/></svg>