<svg xmlns="http://www.w3.org/2000/svg" viewBox="0 0 146.772 23.379" height="88.362" width="554.727" preserveAspectRatio="xMinYMin meet"><text style="line-height:125%" x="-.553" y="14.455" font-weight="400" font-size="11.289" font-family="sans-serif" letter-spacing="0" word-spacing="0"><tspan x="-.553" y="14.455" style="-inkscape-font-specification:'Source Code Pro for Powerline'" font-weight="700" font-family="Source Code Pro for Powerline">thoughts</tspan></text><path d="M57.493 13.593c-.693 0-1.145.194-1.55.666-.892 1.043-.591 2.581.624 3.187 1.353.674 2.99-.307 2.988-1.79-.002-1.226-.839-2.063-2.062-2.063zm39.785.051a2.022 2.022 0 00-2.021 2.023 2.022 2.022 0 002.021 2.022 2.022 2.022 0 002.023-2.022 2.022 2.022 0 00-2.023-2.023z" fill="#4285f4"/><path d="M134.582 20.709c-1.136-.298-1.888-1.244-1.917-2.415-.022-.86.17-1.35.752-1.92l.474-.466V7.515l-.366-.323a3.276 3.276 0 01-.563-.66c-.4-.69-.42-1.758-.046-2.491.187-.366.867-1.002.99-.926.053.033.07.02.04-.028-.072-.116.493-.333 1.029-.396.292-.034.577-.009.874.077.545.16 1.242.589 1.162.717-.033.054-.021.071.029.04.11-.068.548.622.663 1.044.268.99-.124 2.142-.93 2.722l-.281.203.02 2.98c.011 1.638.038 2.997.06 3.019.023.022.313-.051.645-.163.38-.128.922-.227 1.463-.27.907-.07 1.274-.166 1.671-.432.837-.56 1.279-1.282 1.33-2.174.02-.346 0-.386-.268-.57-1.311-.891-1.346-2.985-.068-4.027 1.606-1.309 3.975-.345 4.162 1.692.028.31.024.582-.01.603-.033.02-.04.088-.017.15.06.157-.295.948-.397.885-.051-.032-.06-.012-.022.049.04.065-.08.236-.34.48-.385.362-.405.402-.458.925-.196 1.917-1.467 3.669-3.262 4.492-.708.325-1.142.43-1.868.454-.643.02-1.185.174-1.544.435a2.18 2.18 0 01-.396.234c-.14.052-.142.069-.02.238.456.633.576.982.577 1.685 0 .57-.034.761-.198 1.095-.253.514-.751 1.014-1.254 1.257-.422.204-1.276.292-1.716.177zm1.172-1.316c.163-.05.393-.284.578-.587.477-.783-.174-1.878-1.105-1.859-1.34.027-1.792 1.67-.654 2.381.239.15.81.18 1.18.065zm7.774-10.388c.923-.419.963-1.746.069-2.266-.8-.465-1.794.072-1.885 1.02-.046.477.103.814.488 1.104.435.328.827.37 1.328.142zm-7.725-2.558c.247-.116.597-.605.655-.914.125-.662-.27-1.3-.922-1.496-.929-.278-1.847.633-1.57 1.558.109.363.517.838.779.908.245.065.872.032 1.058-.056z" fill="none"/><path d="M143.428 3.344a3.333 3.333 0 00-3.344 3.343 3.33 3.33 0 001.672 2.874v.47c0 1.672-1.672 3.343-3.343 3.343-1.385 0-2.482.288-3.344.758V6.217a3.327 3.327 0 001.672-2.873A3.333 3.333 0 00133.397 0a3.333 3.333 0 00-3.343 3.344c0 1.227.679 2.298 1.671 2.873v10.945a3.327 3.327 0 00-1.671 2.873 3.333 3.333 0 003.343 3.344 3.333 3.333 0 003.344-3.344 3.34 3.34 0 00-.888-2.272c.496-.6 1.28-1.071 2.56-1.071 3.343 0 6.687-3.344 6.687-6.687v-.47a3.327 3.327 0 001.672-2.874 3.333 3.333 0 00-3.344-3.344zm-10.03-1.672c.913 0 1.671.757 1.671 1.672 0 .914-.758 1.671-1.672 1.671a1.684 1.684 0 01-1.672-1.671c0-.915.758-1.672 1.672-1.672zm0 20.061a1.684 1.684 0 01-1.673-1.671c0-.915.758-1.672 1.672-1.672.914 0 1.672.757 1.672 1.672 0 .914-.758 1.671-1.672 1.671zm10.03-13.374a1.684 1.684 0 01-1.672-1.672c0-.914.758-1.672 1.672-1.672.914 0 1.672.758 1.672 1.672 0 .914-.758 1.672-1.672 1.672z" fill="#dbdbdb"/><text style="line-height:125%" x="60.24" y="15.855" font-weight="400" font-size="11.289" font-family="sans-serif" letter-spacing="0" word-spacing="0"><tspan x="60.24" y="15.855" style="-inkscape-font-specification:'Source Code Pro for Powerline'" font-weight="700" font-family="Source Code Pro for Powerline">ideas</tspan></text><text style="line-height:125%" x="100.98" y="14.455" font-weight="400" font-size="11.289" font-family="sans-serif" letter-spacing="0" word-spacing="0"><tspan x="100.98" y="14.455" style="-inkscape-font-specification:'Source Code Pro for Powerline'" font-weight="700" font-family="Source Code Pro for Powerline">bugs</tspan></text></svg>