<svg xmlns="http://www.w3.org/2000/svg" viewBox="0 0 147.406 29.407" height="111.144" width="557.127"><g transform="translate(-132.68 -12.356)"><text y="31.808" x="132.691" style="line-height:125%" font-weight="400" font-size="11.289" font-family="sans-serif" letter-spacing="0" word-spacing="0"><tspan style="-inkscape-font-specification:'Source Code Pro for Powerline'" y="31.808" x="132.691" font-weight="700" font-family="Source Code Pro for Powerline">thoughts ideas bugs</tspan></text><circle r="2.022" cy="31.442" cx="230.523" fill="#4285f4"/><path d="M189.811 33.221c-1.215-.605-1.516-2.143-.622-3.186.404-.472.856-.667 1.548-.667 1.224 0 2.06.837 2.062 2.063.002 1.484-1.635 2.465-2.988 1.79z" fill="#4285f4"/><path d="M267.827 34.793c-1.137-.297-1.888-1.243-1.918-2.414-.021-.861.17-1.351.752-1.921l.475-.465v-8.394l-.367-.323a3.276 3.276 0 01-.563-.66c-.4-.69-.42-1.757-.045-2.49.187-.367.866-1.002.99-.926.052.033.069.02.039-.029-.072-.115.494-.332 1.03-.395.291-.035.577-.01.873.077.546.159 1.242.589 1.163.717-.034.054-.022.07.028.04.11-.068.549.622.663 1.043.269.991-.124 2.142-.929 2.722l-.282.204.02 2.98c.012 1.638.039 2.997.061 3.019.023.022.313-.052.645-.163.38-.128.921-.228 1.462-.27.908-.071 1.274-.166 1.672-.432.836-.56 1.278-1.282 1.33-2.175.02-.345 0-.386-.269-.569-1.31-.892-1.346-2.985-.067-4.028 1.605-1.308 3.975-.345 4.161 1.692.029.311.025.583-.009.604-.033.02-.041.088-.018.149.06.158-.294.949-.397.885-.05-.031-.06-.012-.022.05.04.065-.08.235-.34.48-.385.361-.405.401-.458.924-.195 1.918-1.467 3.67-3.261 4.493-.708.325-1.142.43-1.869.453-.643.021-1.185.174-1.544.436a2.18 2.18 0 01-.395.234c-.141.052-.143.068-.02.238.456.633.575.982.576 1.685.001.57-.033.761-.197 1.095a2.935 2.935 0 01-1.255 1.257c-.421.204-1.276.292-1.715.177zm1.171-1.315c.164-.051.393-.284.578-.588.477-.782-.174-1.877-1.105-1.858-1.34.027-1.791 1.67-.653 2.38.238.15.81.181 1.18.066zm7.774-10.388c.923-.42.964-1.747.07-2.266-.801-.466-1.794.072-1.885 1.02-.046.477.103.814.487 1.103.435.328.828.37 1.329.143zm-7.724-2.558c.247-.117.597-.605.655-.915.124-.661-.27-1.3-.923-1.496-.928-.278-1.846.634-1.57 1.559.11.363.517.838.78.907.245.065.871.032 1.058-.055z" fill="none"/><path d="M275.248 19.563a2.978 2.978 0 00-2.988 2.987c0 1.097.607 2.054 1.494 2.567v.42c0 1.494-1.494 2.988-2.988 2.988-1.237 0-2.217.257-2.987.677V22.13a2.972 2.972 0 001.494-2.567 2.978 2.978 0 00-2.988-2.988 2.978 2.978 0 00-2.987 2.988c0 1.097.607 2.054 1.494 2.567v9.779a2.972 2.972 0 00-1.494 2.567 2.978 2.978 0 002.987 2.988 2.978 2.978 0 002.988-2.988c0-.793-.304-1.493-.794-2.03.444-.537 1.144-.957 2.287-.957 2.988 0 5.975-2.987 5.975-5.975v-.42a2.972 2.972 0 001.494-2.567 2.978 2.978 0 00-2.987-2.988zm-8.963-1.494c.817 0 1.494.677 1.494 1.494s-.677 1.493-1.494 1.493a1.504 1.504 0 01-1.493-1.493c0-.817.677-1.494 1.493-1.494zm0 17.924a1.504 1.504 0 01-1.493-1.493c0-.817.677-1.494 1.493-1.494.817 0 1.494.677 1.494 1.494 0 .816-.677 1.493-1.494 1.493zm8.963-11.95a1.504 1.504 0 01-1.494-1.493c0-.817.677-1.494 1.494-1.494.816 0 1.493.677 1.493 1.494s-.677 1.494-1.493 1.494z" fill="#dbdbdb" stroke="#000" stroke-width=".054"/></g></svg>