<svg xmlns="http://www.w3.org/2000/svg" preserveAspectRatio="xMidYMid" width="440" height="320"><path d="M33.39 29.66c-1.621.169-2.744-.073-4.237-.61l-1.231 2.651c-.276.335-.718.391-1.008.139-.449-.866-2.48-4.467-5.687-5.519.654 1.177 1.134 2.423 1.487 3.646a15.562 15.562 0 01-4.782 1.3C8.955 32.2 0 25.284 0 15.255 0 5.229 8.952-1.221 17.932.183a16.355 16.355 0 018.264 3.869C28.337 2.746 30.827 2.2 33.39 2.6 39.53 3.56 44 9.698 44 16.408S39.53 29.022 33.39 29.66zm0-23.301c-2.4-.289-4.669.575-6.379 2.249h-.009a.986.986 0 01-.799.29 1.216 1.216 0 01-.81-.44l-.025-.002a11.702 11.702 0 00-7.431-3.953c-6.557-.788-12.425 4.055-12.425 10.9 0 6.845 5.868 11.995 12.425 11.551a11.008 11.008 0 007.419-3.553h.005c.208-.257.508-.428.842-.44.347-.013.652.148.855.403 1.705 1.735 3.953 2.699 6.332 2.538 4.509-.306 7.886-4.578 7.886-9.565 0-4.987-3.377-9.437-7.886-9.978zm.001 12.404c-1.283-.001-2.346-1.206-2.346-2.692 0-1.486 1.063-2.635 2.346-2.569 1.252.064 2.246 1.268 2.246 2.689 0 1.422-.994 2.574-2.246 2.572zm-15.454-.013c-1.7-.002-3.113-1.391-3.113-3.104 0-1.712 1.413-3.027 3.113-2.94 1.653.085 2.959 1.472 2.959 3.099a2.938 2.938 0 01-2.959 2.945z" fill="#3962c9" fill-rule="evenodd"/></svg>