<svg xmlns="http://www.w3.org/2000/svg" version="1.0" width="600" height="75"><path fill="none" stroke="#000" stroke-width="2" stroke-linecap="round" d="M29.26 28.7h120.001v26.024H29.26z"/><path fill="#10ff2e" fill-opacity=".396" stroke="#000" stroke-linecap="round" d="M134.262 28.699h14.999v26.024h-14.999z"/><path d="M30.24 25.223v-9.425h118.138v9.425" fill="none" stroke="green"/><path d="M150.26 25.223v-9.425h343.148v9.425" fill="none" stroke="maroon"/><path fill="none" stroke="#000" stroke-width="2" stroke-linecap="round" d="M149.26 28.67h345.971v26.024H149.26z"/><path fill="#0af5ff" fill-opacity=".237" stroke="#000" stroke-width="2" stroke-linecap="round" d="M14.261 28.699H29.26v26.024H14.261z"/><text x="28.313" y="11.142" style="text-align:end" font-size="14.641" text-anchor="end" font-family="Gill Sans MT"><tspan x="28.313" y="11.142" style="text-align:end" font-weight="400" font-family="Arial">sign</tspan></text><text x="89.091" y="11.142" style="text-align:center" font-size="14.641" text-anchor="middle" font-family="Gill Sans MT"><tspan x="89.091" y="11.142" font-weight="400" font-family="Arial">exponent (8 bits)</tspan></text><text x="322.274" y="11.142" style="text-align:center" font-size="14.641" text-anchor="middle" font-family="Gill Sans MT"><tspan x="322.274" y="11.142" font-weight="400" font-family="Arial">fraction (23 bits)</tspan></text><path d="M489.731 59.223a2 2 0 11-4 0 2 2 0 114 0z"/><text x="487.779" y="74.339" style="text-align:center" font-size="14.041" text-anchor="middle" font-family="Arial"><tspan x="487.779" y="74.339" font-weight="400">0</tspan></text><path d="M143.761 59.223a2 2 0 11-4 0 2 2 0 114 0z"/><text x="141.878" y="74.339" style="text-align:center" font-size="14.041" text-anchor="middle" font-family="Arial"><tspan x="141.878" y="74.339" font-weight="400">23</tspan></text><path d="M23.76 59.223a2 2 0 11-4 0 2 2 0 114 0z"/><text x="21.256" y="74.339" style="text-align:center" font-size="14.041" text-anchor="middle" font-family="Arial"><tspan x="21.256" y="74.339" font-weight="400">31</tspan></text><path d="M21.76 25.223v-9.425" fill="none" stroke="teal"/><path fill="#10ff2e" fill-opacity=".396" stroke="#000" stroke-linecap="round" d="M119.261 28.699h14.999v26.024h-14.999zm-15 0h14.999v26.024h-14.999zm-15 0h14.999v26.024H89.261zm-15 0H89.26v26.024H74.261zm-15.001 0h14.999v26.024H59.26zm-15 0h14.999v26.024H44.26zm-15 0h14.999v26.024H29.26z"/><path fill="#ff1e1e" fill-opacity=".361" stroke="#000" stroke-linecap="round" d="M149.26 28.699h14.999v26.024H149.26zm15.044 0h14.999v26.024h-14.999zm15.044 0h14.999v26.024h-14.999zm15.044 0h14.999v26.024h-14.999zm15.045 0h14.999v26.024h-14.999zm15.044 0h14.999v26.024h-14.999zm15.044 0h14.999v26.024h-14.999zm15.044 0h14.999v26.024h-14.999zm15.044 0h14.999v26.024h-14.999zm15.045 0h14.999v26.024h-14.999zm15.044 0h14.999v26.024h-14.999zm15.044 0h14.999v26.024h-14.999zm15.044 0h14.999v26.024H329.79zm15.044 0h14.999v26.024h-14.999zm15.044 0h14.999v26.024h-14.999zm15.045 0h14.999v26.024h-14.999zm15.044 0h14.999v26.024h-14.999zm15.044 0h14.999v26.024h-14.999zm15.044 0h14.999v26.024h-14.999zm15.044 0h14.999v26.024h-14.999zm15.045 0h14.999v26.024h-14.999zm15.044 0h14.999v26.024h-14.999zm15.044 0h14.999v26.024h-14.999z"/><text x="22.288" y="46.757" style="text-align:center" font-size="14.041" text-anchor="middle" font-family="Arial"><tspan x="22.288" y="46.757" font-weight="400">1</tspan></text><text x="37.32" y="46.757" style="text-align:center" font-size="14.041" text-anchor="middle" font-family="Arial"><tspan x="37.32" y="46.757" font-weight="400">1</tspan></text><text x="52.351" y="46.757" style="text-align:center" font-size="14.041" text-anchor="middle" font-family="Arial"><tspan x="52.351" y="46.757" font-weight="400">0</tspan></text><text x="67.382" y="46.757" style="text-align:center" font-size="14.041" text-anchor="middle" font-family="Arial"><tspan x="67.382" y="46.757" font-weight="400">0</tspan></text><text x="82.413" y="46.757" style="text-align:center" font-size="14.041" text-anchor="middle" font-family="Arial"><tspan x="82.413" y="46.757" font-weight="400">0</tspan></text><text x="97.445" y="46.757" style="text-align:center" font-size="14.041" text-anchor="middle" font-family="Arial"><tspan x="97.445" y="46.757" font-weight="400">0</tspan></text><text x="112.476" y="46.757" style="text-align:center" font-size="14.041" text-anchor="middle" font-family="Arial"><tspan x="112.476" y="46.757" font-weight="400">1</tspan></text><text x="127.507" y="46.757" style="text-align:center" font-size="14.041" text-anchor="middle" font-family="Arial"><tspan x="127.507" y="46.757" font-weight="400">0</tspan></text><text x="142.539" y="46.757" style="text-align:center" font-size="14.041" text-anchor="middle" font-family="Arial"><tspan x="142.539" y="46.757" font-weight="400">1</tspan></text><text x="157.57" y="46.757" style="text-align:center" font-size="14.041" text-anchor="middle" font-family="Arial"><tspan x="157.57" y="46.757" font-weight="400">1</tspan></text><text x="172.601" y="46.757" style="text-align:center" font-size="14.041" text-anchor="middle" font-family="Arial"><tspan x="172.601" y="46.757" font-weight="400">1</tspan></text><text x="187.633" y="46.757" style="text-align:center" font-size="14.041" text-anchor="middle" font-family="Arial"><tspan x="187.633" y="46.757" font-weight="400">0</tspan></text><text x="202.664" y="46.757" style="text-align:center" font-size="14.041" text-anchor="middle" font-family="Arial"><tspan x="202.664" y="46.757" font-weight="400">1</tspan></text><text x="217.695" y="46.757" style="text-align:center" font-size="14.041" text-anchor="middle" font-family="Arial"><tspan x="217.695" y="46.757" font-weight="400">1</tspan></text><text x="232.727" y="46.757" style="text-align:center" font-size="14.041" text-anchor="middle" font-family="Arial"><tspan x="232.727" y="46.757" font-weight="400">0</tspan></text><text x="247.758" y="46.757" style="text-align:center" font-size="14.041" text-anchor="middle" font-family="Arial"><tspan x="247.758" y="46.757" font-weight="400">1</tspan></text><text x="262.789" y="46.757" style="text-align:center" font-size="14.041" text-anchor="middle" font-family="Arial"><tspan x="262.789" y="46.757" font-weight="400">0</tspan></text><text x="277.821" y="46.757" style="text-align:center" font-size="14.041" text-anchor="middle" font-family="Arial"><tspan x="277.821" y="46.757" font-weight="400">1</tspan></text><text x="292.852" y="46.757" style="text-align:center" font-size="14.041" text-anchor="middle" font-family="Arial"><tspan x="292.852" y="46.757" font-weight="400">0</tspan></text><text x="307.883" y="46.757" style="text-align:center" font-size="14.041" text-anchor="middle" font-family="Arial"><tspan x="307.883" y="46.757" font-weight="400">0</tspan></text><text x="322.915" y="46.757" style="text-align:center" font-size="14.041" text-anchor="middle" font-family="Arial"><tspan x="322.915" y="46.757" font-weight="400">0</tspan></text><text x="337.946" y="46.757" style="text-align:center" font-size="14.041" text-anchor="middle" font-family="Arial"><tspan x="337.946" y="46.757" font-weight="400">0</tspan></text><text x="352.977" y="46.757" style="text-align:center" font-size="14.041" text-anchor="middle" font-family="Arial"><tspan x="352.977" y="46.757" font-weight="400">0</tspan></text><text x="368.009" y="46.757" style="text-align:center" font-size="14.041" text-anchor="middle" font-family="Arial"><tspan x="368.009" y="46.757" font-weight="400">0</tspan></text><text x="383.04" y="46.757" style="text-align:center" font-size="14.041" text-anchor="middle" font-family="Arial"><tspan x="383.04" y="46.757" font-weight="400">0</tspan></text><text x="398.071" y="46.757" style="text-align:center" font-size="14.041" text-anchor="middle" font-family="Arial"><tspan x="398.071" y="46.757" font-weight="400">0</tspan></text><text x="413.103" y="46.757" style="text-align:center" font-size="14.041" text-anchor="middle" font-family="Arial"><tspan x="413.103" y="46.757" font-weight="400">0</tspan></text><text x="428.134" y="46.757" style="text-align:center" font-size="14.041" text-anchor="middle" font-family="Arial"><tspan x="428.134" y="46.757" font-weight="400">0</tspan></text><text x="443.165" y="46.757" style="text-align:center" font-size="14.041" text-anchor="middle" font-family="Arial"><tspan x="443.165" y="46.757" font-weight="400">0</tspan></text><text x="458.197" y="46.757" style="text-align:center" font-size="14.041" text-anchor="middle" font-family="Arial"><tspan x="458.197" y="46.757" font-weight="400">0</tspan></text><text x="473.228" y="46.757" style="text-align:center" font-size="14.041" text-anchor="middle" font-family="Arial"><tspan x="473.228" y="46.757" font-weight="400">0</tspan></text><text x="488.259" y="46.757" style="text-align:center" font-size="14.041" text-anchor="middle" font-family="Arial"><tspan x="488.259" y="46.757" font-weight="400">0</tspan></text><text x="504.264" y="48.399" style="text-align:start" font-size="18.688" font-family="Arial"><tspan x="504.264" y="48.399" style="text-align:start" font-weight="400">= −118.625</tspan></text></svg>